<svg width="744" height="136" viewBox="0 0 744 136" fill="none" xmlns="http://www.w3.org/2000/svg">
<path d="M107.444 67.7868C107.444 87.808 111.135 107.047 118.067 124.609C118.402 125.504 118.626 126.51 118.626 127.517C118.626 131.658 115.382 135.571 110.799 135.571C107.891 135.571 105.098 133.781 103.979 130.984C96.3762 111.41 92.1263 90.1558 92.1263 67.7845C92.1263 45.4132 96.3762 24.1592 103.979 4.58467C105.098 1.79055 107.893 0 110.799 0C115.385 0 118.626 3.9139 118.626 8.05478C118.626 9.06099 118.402 10.0672 118.067 10.9625C111.135 28.522 107.444 47.7661 107.444 67.7868Z" fill="white"/>
<path d="M76.8099 67.789C76.8099 82.4406 78.4861 96.76 81.6169 110.406C81.7301 110.965 81.8409 111.634 81.8409 112.194C81.8409 116.445 78.4861 120.248 74.0144 120.248C70.6596 120.248 67.6397 117.9 66.8581 114.544C63.2816 99.5541 61.3809 83.8933 61.3809 67.7863C61.3809 51.6793 63.2816 36.0188 66.8581 21.0316C67.642 17.675 70.6596 15.3271 74.0144 15.3271C78.4861 15.3271 81.8409 19.0166 81.8409 23.2684C81.8409 23.8283 81.7301 24.4991 81.6169 25.0589C78.4889 38.8181 76.8099 53.137 76.8099 67.789Z" fill="white"/>
<path fill-rule="evenodd" clip-rule="evenodd" d="M46.062 67.7799C46.062 60.735 46.3973 53.9117 47.0676 47.0885C47.5138 42.3901 43.9372 38.3628 39.3519 38.3628C35.44 38.3628 32.1956 41.2704 31.8608 45.0733C31.0792 52.5681 30.7411 60.0634 30.7411 67.7799C30.7411 75.4969 31.0765 82.9918 31.8608 90.4866C32.1956 94.2894 35.4373 97.1971 39.3519 97.1971C43.9372 97.1971 47.5138 93.0589 47.0676 88.4718C46.3973 81.6486 46.062 74.714 46.062 67.7799Z" fill="white"/>
<path d="M2.23562 73.1523C0.781555 71.6969 0 69.6844 0 67.7832C0 65.7707 0.781555 63.7581 2.23562 62.3032L6.70733 57.9405C7.71336 56.934 9.05429 56.4878 10.2843 56.4878C12.8553 56.4878 15.4263 58.5003 15.4263 61.6325V73.9366C15.4263 77.066 12.8553 79.0808 10.2843 79.0808C9.05429 79.0808 7.71336 78.6319 6.70733 77.6259L2.23562 73.1523Z" fill="white"/>
<path d="M159.04 95.7871H152.989V38.6895H159.04V95.7871ZM194.492 71.4993H155.035V66.0452H194.492V71.4993ZM195.77 44.2288H155.035V38.6895H195.77V44.2288Z" fill="white"/>
<path d="M216.707 95.7871H210.656V53.6883H216.11V65.5339L216.707 65.96V95.7871ZM216.707 72.9481H215.002V65.193H216.536C216.934 62.9205 217.729 60.8468 218.923 58.9719C220.172 57.0971 221.82 55.6199 223.865 54.5405C225.911 53.4042 228.41 52.8361 231.365 52.8361C234.603 52.8361 237.245 53.5462 239.29 54.9666C241.392 56.3869 242.926 58.2333 243.892 60.5059C244.858 62.7784 245.341 65.2214 245.341 67.8348V72.0106H239.29V68.7723C239.29 65.193 238.495 62.5228 236.904 60.7616C235.313 59.0003 232.671 58.1197 228.979 58.1197C224.718 58.1197 221.593 59.398 219.604 61.9546C217.673 64.5112 216.707 68.1757 216.707 72.9481Z" fill="white"/>
<path d="M279.195 96.6393C274.707 96.6393 270.787 95.7587 267.435 93.9975C264.083 92.1794 261.498 89.6228 259.68 86.3277C257.919 83.0325 257.038 79.1691 257.038 74.7377C257.038 70.4767 257.919 66.6986 259.68 63.4034C261.498 60.1082 264.054 57.5232 267.35 55.6483C270.702 53.7735 274.622 52.8361 279.11 52.8361C283.257 52.8361 286.894 53.603 290.018 55.137C293.2 56.671 295.7 58.9151 297.518 61.8694C299.336 64.7669 300.245 68.3178 300.245 72.522C300.245 73.2605 300.188 73.9707 300.074 74.6525C300.017 75.2774 299.932 75.874 299.819 76.4421H260.788V72.6924H296.154L294.365 74.9081C294.421 74.34 294.45 73.7719 294.45 73.2037C294.507 72.6356 294.535 72.039 294.535 71.4141C294.535 66.9826 293.2 63.6306 290.53 61.3581C287.859 59.0287 284.024 57.8641 279.025 57.8641C273.287 57.8641 269.139 59.3128 266.583 62.2103C264.026 65.051 262.748 68.9711 262.748 73.9707V75.3342C262.748 80.3906 264.026 84.3676 266.583 87.2651C269.139 90.1626 273.315 91.6113 279.11 91.6113C284.053 91.6113 287.689 90.7591 290.018 89.0547C292.404 87.2935 293.598 84.8789 293.598 81.811V81.2144H299.648V81.811C299.648 84.7653 298.768 87.3503 297.006 89.566C295.245 91.7818 292.802 93.5146 289.677 94.7645C286.609 96.0144 283.115 96.6393 279.195 96.6393Z" fill="white"/>
<path d="M335.115 96.6393C330.626 96.6393 326.706 95.7587 323.354 93.9975C320.002 92.1794 317.417 89.6228 315.599 86.3277C313.838 83.0325 312.957 79.1691 312.957 74.7377C312.957 70.4767 313.838 66.6986 315.599 63.4034C317.417 60.1082 319.974 57.5232 323.269 55.6483C326.621 53.7735 330.541 52.8361 335.029 52.8361C339.177 52.8361 342.813 53.603 345.937 55.137C349.119 56.671 351.619 58.9151 353.437 61.8694C355.255 64.7669 356.164 68.3178 356.164 72.522C356.164 73.2605 356.107 73.9707 355.993 74.6525C355.937 75.2774 355.851 75.874 355.738 76.4421H316.707V72.6924H352.073L350.284 74.9081C350.341 74.34 350.369 73.7719 350.369 73.2037C350.426 72.6356 350.454 72.039 350.454 71.4141C350.454 66.9826 349.119 63.6306 346.449 61.3581C343.779 59.0287 339.944 57.8641 334.944 57.8641C329.206 57.8641 325.059 59.3128 322.502 62.2103C319.945 65.051 318.667 68.9711 318.667 73.9707V75.3342C318.667 80.3906 319.945 84.3676 322.502 87.2651C325.059 90.1626 329.234 91.6113 335.029 91.6113C339.972 91.6113 343.608 90.7591 345.937 89.0547C348.324 87.2935 349.517 84.8789 349.517 81.811V81.2144H355.567V81.811C355.567 84.7653 354.687 87.3503 352.926 89.566C351.164 91.7818 348.721 93.5146 345.597 94.7645C342.529 96.0144 339.035 96.6393 335.115 96.6393Z" fill="white"/>
<path d="M380.04 95.7871H373.99V55.5631C373.99 51.8134 374.7 48.6887 376.12 46.1889C377.597 43.6891 379.699 41.8142 382.426 40.5643C385.21 39.3144 388.534 38.6895 392.397 38.6895H396.999V43.4618H391.545C387.568 43.4618 384.585 44.2572 382.597 45.848C380.608 47.4388 379.756 50.3079 380.04 54.4552V95.7871ZM396.999 58.8867H367.257V53.6883H396.999V58.8867Z" fill="white"/>
<path d="M415.833 95.7871H409.782V53.6883H415.236V65.5339L415.833 65.96V95.7871ZM415.833 72.9481H414.128V65.193H415.662C416.06 62.9205 416.855 60.8468 418.049 58.9719C419.298 57.0971 420.946 55.6199 422.991 54.5405C425.037 53.4042 427.536 52.8361 430.491 52.8361C433.729 52.8361 436.371 53.5462 438.416 54.9666C440.518 56.3869 442.052 58.2333 443.018 60.5059C443.984 62.7784 444.467 65.2214 444.467 67.8348V72.0106H438.416V68.7723C438.416 65.193 437.621 62.5228 436.03 60.7616C434.439 59.0003 431.797 58.1197 428.105 58.1197C423.844 58.1197 420.719 59.398 418.73 61.9546C416.799 64.5112 415.833 68.1757 415.833 72.9481Z" fill="white"/>
<path d="M495.536 95.7871H490.082V84.2824L489.656 83.9415V69.7097C489.656 65.6191 488.69 62.6932 486.758 60.932C484.826 59.1708 481.531 58.2902 476.873 58.2902C472.384 58.2902 468.947 59.1424 466.561 60.8468C464.231 62.4944 463.067 65.193 463.067 68.9427V69.2836H457.016V68.9427C457.016 65.9316 457.812 63.2329 459.402 60.8468C460.993 58.4038 463.294 56.4721 466.305 55.0518C469.316 53.5746 472.981 52.8361 477.299 52.8361C481.56 52.8361 485.025 53.5746 487.696 55.0518C490.423 56.5289 492.411 58.5174 493.661 61.0172C494.911 63.517 495.536 66.3293 495.536 69.454V95.7871ZM469.97 96.6393C465.822 96.6393 462.47 95.7019 459.914 93.827C457.357 91.8954 456.079 89.2536 456.079 85.9016C456.079 83.5722 456.647 81.6973 457.783 80.277C458.976 78.7999 460.595 77.6636 462.641 76.8682C464.686 76.0728 467.015 75.5047 469.629 75.1638L490.508 72.8628V76.8682L471.504 78.9987C468.322 79.2828 465.964 79.8793 464.43 80.7883C462.896 81.6973 462.129 83.2597 462.129 85.4754C462.129 87.5776 462.868 89.1967 464.345 90.333C465.822 91.4125 468.152 91.9522 471.333 91.9522C474.799 91.9522 477.895 91.4409 480.622 90.4182C483.349 89.3388 485.537 87.7196 487.184 85.5607C488.832 83.4018 489.656 80.6463 489.656 77.2943L490.849 77.7204V84.4528H489.656C488.406 88.3161 486.048 91.3272 482.582 93.4862C479.117 95.5883 474.912 96.6393 469.97 96.6393Z" fill="white"/>
<path d="M584.566 95.7871H578.516V72.0959C578.516 67.4371 577.493 63.9999 575.448 61.7842C573.403 59.5117 570.136 58.3754 565.648 58.3754C560.591 58.3754 556.955 59.8241 554.739 62.7216C552.524 65.5623 551.416 69.7949 551.416 75.4194H549.797L549.626 66.8122H551.075C551.529 64.3692 552.382 62.0967 553.631 59.9946C554.938 57.8925 556.756 56.1881 559.086 54.8813C561.472 53.5178 564.398 52.8361 567.863 52.8361C571.556 52.8361 574.624 53.6314 577.067 55.2222C579.567 56.813 581.442 59.0003 582.692 61.7842C583.941 64.5112 584.566 67.6644 584.566 71.2437V95.7871ZM518.35 95.7871H512.3V53.6883H517.754V67.0679L518.35 67.494V95.7871ZM551.416 95.7871H545.365V72.0959C545.365 67.4371 544.342 63.9999 542.297 61.7842C540.252 59.5117 537.013 58.3754 532.582 58.3754C527.469 58.3754 523.804 59.8241 521.589 62.7216C519.43 65.5623 518.35 69.7949 518.35 75.4194H516.731L516.646 66.3861H518.095C518.492 63.9999 519.316 61.7842 520.566 59.7389C521.816 57.6936 523.605 56.046 525.935 54.7961C528.264 53.4894 531.162 52.8361 534.627 52.8361C538.32 52.8361 541.36 53.6599 543.746 55.3074C546.189 56.8982 548.007 59.0855 549.2 61.8694C550.393 64.5965 550.99 67.7212 550.99 71.2437H551.416V95.7871Z" fill="white"/>
<path d="M621.285 96.6393C616.797 96.6393 612.877 95.7587 609.525 93.9975C606.173 92.1794 603.588 89.6228 601.77 86.3277C600.008 83.0325 599.128 79.1691 599.128 74.7377C599.128 70.4767 600.008 66.6986 601.77 63.4034C603.588 60.1082 606.144 57.5232 609.439 55.6483C612.791 53.7735 616.712 52.8361 621.2 52.8361C625.347 52.8361 628.983 53.603 632.108 55.137C635.29 56.671 637.789 58.9151 639.607 61.8694C641.425 64.7669 642.334 68.3178 642.334 72.522C642.334 73.2605 642.278 73.9707 642.164 74.6525C642.107 75.2774 642.022 75.874 641.908 76.4421H602.877V72.6924H638.244L636.454 74.9081C636.511 74.34 636.539 73.7719 636.539 73.2037C636.596 72.6356 636.625 72.039 636.625 71.4141C636.625 66.9826 635.29 63.6306 632.619 61.3581C629.949 59.0287 626.114 57.8641 621.115 57.8641C615.376 57.8641 611.229 59.3128 608.672 62.2103C606.116 65.051 604.838 68.9711 604.838 73.9707V75.3342C604.838 80.3906 606.116 84.3676 608.672 87.2651C611.229 90.1626 615.405 91.6113 621.2 91.6113C626.143 91.6113 629.779 90.7591 632.108 89.0547C634.494 87.2935 635.687 84.8789 635.687 81.811V81.2144H641.738V81.811C641.738 84.7653 640.857 87.3503 639.096 89.566C637.335 91.7818 634.892 93.5146 631.767 94.7645C628.699 96.0144 625.205 96.6393 621.285 96.6393Z" fill="white"/>
<path d="M662.12 95.7871H654.621V83.9415H662.12V95.7871Z" fill="white"/>
<path d="M682.696 95.7871H676.645V53.6883H682.696V95.7871ZM682.696 48.3194H676.645V38.6895H682.696V48.3194Z" fill="white"/>
<path d="M720.314 96.6393C715.769 96.6393 711.764 95.7019 708.298 93.827C704.89 91.9522 702.219 89.3672 700.288 86.072C698.413 82.7768 697.475 78.9987 697.475 74.7377C697.475 70.4767 698.413 66.6986 700.288 63.4034C702.219 60.1082 704.89 57.5232 708.298 55.6483C711.764 53.7735 715.769 52.8361 720.314 52.8361C724.973 52.8361 729.007 53.7735 732.416 55.6483C735.825 57.5232 738.466 60.1082 740.341 63.4034C742.273 66.6986 743.239 70.4767 743.239 74.7377C743.239 78.9987 742.273 82.7768 740.341 86.072C738.466 89.3672 735.825 91.9522 732.416 93.827C729.007 95.7019 724.973 96.6393 720.314 96.6393ZM720.314 91.1852C726.166 91.1852 730.456 89.7365 733.183 86.839C735.91 83.8847 737.273 79.8509 737.273 74.7377C737.273 69.6245 735.91 65.6191 733.183 62.7216C730.456 59.7673 726.166 58.2902 720.314 58.2902C714.576 58.2902 710.315 59.7673 707.531 62.7216C704.804 65.6191 703.441 69.6245 703.441 74.7377C703.441 79.8509 704.804 83.8847 707.531 86.839C710.315 89.7365 714.576 91.1852 720.314 91.1852Z" fill="white"/>
</svg>
