<svg width="119" height="136" viewBox="0 0 119 136" fill="none" xmlns="http://www.w3.org/2000/svg">
<path d="M107.444 67.7868C107.444 87.808 111.135 107.047 118.067 124.609C118.402 125.504 118.626 126.51 118.626 127.517C118.626 131.658 115.382 135.571 110.799 135.571C107.891 135.571 105.098 133.781 103.979 130.984C96.3762 111.41 92.1263 90.1558 92.1263 67.7845C92.1263 45.4132 96.3762 24.1592 103.979 4.58467C105.098 1.79055 107.893 0 110.799 0C115.385 0 118.626 3.9139 118.626 8.05478C118.626 9.06099 118.402 10.0672 118.067 10.9625C111.135 28.522 107.444 47.7661 107.444 67.7868Z" fill="white"/>
<path d="M76.8099 67.789C76.8099 82.4406 78.4861 96.76 81.6169 110.406C81.7301 110.965 81.8409 111.634 81.8409 112.194C81.8409 116.445 78.4861 120.248 74.0144 120.248C70.6596 120.248 67.6397 117.9 66.8581 114.544C63.2816 99.5541 61.3809 83.8933 61.3809 67.7863C61.3809 51.6793 63.2816 36.0188 66.8581 21.0316C67.642 17.675 70.6596 15.3271 74.0144 15.3271C78.4861 15.3271 81.8409 19.0166 81.8409 23.2684C81.8409 23.8283 81.7301 24.4991 81.6169 25.0589C78.4889 38.8181 76.8099 53.137 76.8099 67.789Z" fill="white"/>
<path fill-rule="evenodd" clip-rule="evenodd" d="M46.062 67.7799C46.062 60.735 46.3973 53.9117 47.0676 47.0885C47.5138 42.3901 43.9372 38.3628 39.3519 38.3628C35.44 38.3628 32.1956 41.2704 31.8608 45.0733C31.0792 52.5681 30.7411 60.0634 30.7411 67.7799C30.7411 75.4969 31.0765 82.9918 31.8608 90.4866C32.1956 94.2894 35.4373 97.1971 39.3519 97.1971C43.9372 97.1971 47.5138 93.0589 47.0676 88.4718C46.3973 81.6486 46.062 74.714 46.062 67.7799Z" fill="white"/>
<path d="M2.23562 73.1523C0.781555 71.6969 0 69.6844 0 67.7832C0 65.7707 0.781555 63.7581 2.23562 62.3032L6.70733 57.9405C7.71336 56.934 9.05429 56.4878 10.2843 56.4878C12.8553 56.4878 15.4263 58.5003 15.4263 61.6325V73.9366C15.4263 77.066 12.8553 79.0808 10.2843 79.0808C9.05429 79.0808 7.71336 78.6319 6.70733 77.6259L2.23562 73.1523Z" fill="white"/>
</svg>
